REM MD5 7deb8eefd8d3458974417feede93fd19
FILE "Tomb Raider (France).bin" BINARY
  TRACK 01 MODE2/2352
    INDEX 01 00:00:00
  TRACK 02 AUDIO
    INDEX 00 27:47:27
    INDEX 01 27:49:27
  TRACK 03 AUDIO
    INDEX 00 31:03:70
    INDEX 01 31:05:70
  TRACK 04 AUDIO
    INDEX 00 32:07:68
    INDEX 01 32:09:68
  TRACK 05 AUDIO
    INDEX 00 34:11:32
    INDEX 01 34:13:32
  TRACK 06 AUDIO
    INDEX 00 36:11:43
    INDEX 01 36:13:43
  TRACK 07 AUDIO
    INDEX 00 37:28:42
    INDEX 01 37:30:42
  TRACK 08 AUDIO
    INDEX 00 38:24:33
    INDEX 01 38:26:33
  TRACK 09 AUDIO
    INDEX 00 39:32:52
    INDEX 01 39:34:52
  TRACK 10 AUDIO
    INDEX 00 40:12:58
    INDEX 01 40:14:58
  TRACK 11 AUDIO
    INDEX 00 41:32:04
    INDEX 01 41:34:04
  TRACK 12 AUDIO
    INDEX 00 41:40:41
    INDEX 01 41:42:41
  TRACK 13 AUDIO
    INDEX 00 41:55:40
    INDEX 01 41:57:40
  TRACK 14 AUDIO
    INDEX 00 42:02:43
    INDEX 01 42:04:43
  TRACK 15 AUDIO
    INDEX 00 42:14:48
    INDEX 01 42:16:48
  TRACK 16 AUDIO
    INDEX 00 42:25:51
    INDEX 01 42:27:51
  TRACK 17 AUDIO
    INDEX 00 43:04:39
    INDEX 01 43:06:39
  TRACK 18 AUDIO
    INDEX 00 43:47:28
    INDEX 01 43:49:28
  TRACK 19 AUDIO
    INDEX 00 44:12:52
    INDEX 01 44:14:52
  TRACK 20 AUDIO
    INDEX 00 45:41:22
    INDEX 01 45:43:22
  TRACK 21 AUDIO
    INDEX 00 46:35:39
    INDEX 01 46:37:39
  TRACK 22 AUDIO
    INDEX 00 47:16:56
    INDEX 01 47:18:56
  TRACK 23 AUDIO
    INDEX 00 48:20:19
    INDEX 01 48:22:19
  TRACK 24 AUDIO
    INDEX 00 49:17:57
    INDEX 01 49:19:57
  TRACK 25 AUDIO
    INDEX 00 49:33:10
    INDEX 01 49:35:10
  TRACK 26 AUDIO
    INDEX 00 50:09:29
    INDEX 01 50:11:29
  TRACK 27 AUDIO
    INDEX 00 50:16:30
    INDEX 01 50:18:30
  TRACK 28 AUDIO
    INDEX 00 50:23:30
    INDEX 01 50:25:30
  TRACK 29 AUDIO
    INDEX 00 50:30:31
    INDEX 01 50:32:31
  TRACK 30 AUDIO
    INDEX 00 50:37:32
    INDEX 01 50:39:32
  TRACK 31 AUDIO
    INDEX 00 50:45:05
    INDEX 01 50:47:05
  TRACK 32 AUDIO
    INDEX 00 50:52:06
    INDEX 01 50:54:06
  TRACK 33 AUDIO
    INDEX 00 51:01:31
    INDEX 01 51:03:31
  TRACK 34 AUDIO
    INDEX 00 51:10:30
    INDEX 01 51:12:30
  TRACK 35 AUDIO
    INDEX 00 51:17:46
    INDEX 01 51:19:46
  TRACK 36 AUDIO
    INDEX 00 51:25:21
    INDEX 01 51:27:21
  TRACK 37 AUDIO
    INDEX 00 51:41:43
    INDEX 01 51:43:43
  TRACK 38 AUDIO
    INDEX 00 51:48:43
    INDEX 01 51:50:43
  TRACK 39 AUDIO
    INDEX 00 51:55:44
    INDEX 01 51:57:44
  TRACK 40 AUDIO
    INDEX 00 52:11:63
    INDEX 01 52:13:63
  TRACK 41 AUDIO
    INDEX 00 52:22:29
    INDEX 01 52:24:29
  TRACK 42 AUDIO
    INDEX 00 52:29:29
    INDEX 01 52:31:29
  TRACK 43 AUDIO
    INDEX 00 52:36:29
    INDEX 01 52:38:29
  TRACK 44 AUDIO
    INDEX 00 52:45:41
    INDEX 01 52:47:41
  TRACK 45 AUDIO
    INDEX 00 52:52:71
    INDEX 01 52:54:71
  TRACK 46 AUDIO
    INDEX 00 53:02:48
    INDEX 01 53:04:48
  TRACK 47 AUDIO
    INDEX 00 53:09:49
    INDEX 01 53:11:49
  TRACK 48 AUDIO
    INDEX 00 53:16:49
    INDEX 01 53:18:49
  TRACK 49 AUDIO
    INDEX 00 53:23:50
    INDEX 01 53:25:50
  TRACK 50 AUDIO
    INDEX 00 53:39:55
    INDEX 01 53:41:55
  TRACK 51 AUDIO
    INDEX 00 53:46:56
    INDEX 01 53:48:56
  TRACK 52 AUDIO
    INDEX 00 53:53:56
    INDEX 01 53:55:56
  TRACK 53 AUDIO
    INDEX 00 54:00:56
    INDEX 01 54:02:56
  TRACK 54 AUDIO
    INDEX 00 54:10:34
    INDEX 01 54:12:34
  TRACK 55 AUDIO
    INDEX 00 54:17:35
    INDEX 01 54:19:35
  TRACK 56 AUDIO
    INDEX 00 54:35:49
    INDEX 01 54:37:49
  TRACK 57 AUDIO
    INDEX 00 54:42:50
    INDEX 01 54:44:50
REM LEADOUT 58:01:50
